<svg xmlns="http://www.w3.org/2000/svg" viewBox="0 0 100 100" xml:space="preserve"><g fill="#FFF"><path d="m35.88 21.63-.66-1.32.71-.35c.86-.43.68-1.35.47-1.78-.27-.54-.68-.84-1.14-.84-.18 0-.36.05-.54.14l-1.53.77 1.9 3.79zm-.48-2.36-.56.28-.48-.95.47-.23c.38-.19.58-.15.76.18.12.24.19.53-.19.72m3.53.97-.55-1.5.66-.24c.46-.17.53-.06.73.48.14.4.25.59.37.76l.03.04.9-.33-.08-.21h-.05c-.12-.01-.17-.12-.37-.66-.23-.63-.42-.78-.71-.84.21-.27.26-.68.11-1.08-.14-.38-.51-.83-1.08-.83-.15 0-.31.03-.47.09l-1.77.65 1.46 3.97zm-1.17-3.18.81-.3c.07-.03.14-.04.2-.04.23 0 .34.2.38.32.06.17.07.3.02.4s-.16.17-.33.24l-.76.28zm4.44 1.23 1.19-.28.42.76.94-.23-2.24-3.76-.03-.04-.94.23-.3 4.43.91-.23zm.75-1.05-.71.17.05-1.35zm5.01.91-.11-.86-1.98.24-.11-.91 1.74-.22-.11-.85-1.74.21-.09-.71 1.89-.24-.11-.86-2.76.35.53 4.2zm1.88-.8h-.03c-.57 0-.66-.36-.67-.58v-.07l-.86.01v.07c.01.33.13 1.41 1.57 1.41h.06c.25-.01 1.48-.1 1.46-1.44-.01-.79-.52-1.02-1.01-1.15l-.89-.23c-.17-.04-.33-.1-.33-.36-.01-.39.42-.43.55-.43h.03c.52 0 .62.29.65.54l.01.06.86-.01v-.07c-.02-.63-.42-1.37-1.45-1.37h-.05c-1.34.03-1.43 1.05-1.43 1.36.02.95.63 1.1 1.22 1.24l.39.1c.41.1.6.18.61.43-.01.32-.24.48-.69.49m2.063.752.236-4.223.888.05-.235 4.223zm3.477.338c1 0 1.5-1.02 1.63-1.98.06-.41.1-1.17-.3-1.7-.21-.29-.53-.46-.93-.52L54.14 14l-.58 4.12-.01.07 1.6.23c.08.02.15.02.23.02m.15-3.38c.14.02.32.06.45.23.16.21.2.58.13 1.1-.04.29-.25 1.29-.93 1.19l-.65-.09.36-2.51zm3.54-.19-.87-.19-.96 4.12.87.2zm1.27 4.89c.22.07.44.11.63.11.64 0 1.09-.39 1.34-1.15l.85-2.6-.86-.29-.86 2.63c-.15.46-.43.61-.84.47a.52.52 0 0 1-.31-.25c-.08-.16-.08-.38 0-.63l.85-2.59-.86-.28-.87 2.65c-.13.44-.14.78-.04 1.08.2.52.69.76.97.85m2.24.66.76.36 1.21-2.52-.73 2.76.77.37 1.72-2.3-1.19 2.47-.03.06.75.37 1.81-3.75.03-.07-1.09-.52-1.81 2.4.72-2.86.02-.06-1.1-.53-1.81 3.75zM31.13 75.21c-.87 0-1.57.89-1.77 1.16-.27.38-1.08 1.7.07 2.53l1.29.92.06.04 2.47-3.44-1.32-.95a1.46 1.46 0 0 0-.8-.26m-1.1 3.08c-.18-.13-.61-.44.1-1.44.34-.47.71-.74 1.03-.74.12 0 .23.04.34.11l.54.39-1.48 2.06zm.19-4.12-.67-.58-2.71 3.17-.04.05.68.58 2.7-3.17zm-3.26-.61-.2-.34c-.2-.36-.29-.55-.11-.73.22-.22.48-.16.81.16.17.17.25.33.25.5 0 .19-.12.34-.19.41l-.05.05.61.61.05-.05c.17-.16.45-.51.45-.98 0-.39-.19-.79-.57-1.17-.15-.15-.57-.5-1.09-.5-.34 0-.66.15-.96.44-.56.55-.38 1.08-.13 1.53l.45.8c.09.15.16.3-.03.48-.19.19-.46.14-.69-.09-.42-.42-.19-.72-.07-.87l.04-.05-.6-.61-.05.05c-.36.37-.76 1.21.05 2.03.33.33.68.5 1.04.5.44 0 .77-.26.93-.41.68-.69.37-1.23.06-1.76m-1.24-4.16c-.54-.67-1.37-.78-2.24-.3l-.07.04.55.7.05-.03c.41-.22.77-.17 1.02.12.47.6-.29 1.28-.53 1.47-.38.3-.73.46-1.03.46a.71.71 0 0 1-.55-.25c-.35-.44-.1-.77.06-.98l.03-.04-.55-.69-.06.05c-.54.49-.82 1.39-.17 2.21.32.4.74.61 1.24.61s1.05-.22 1.58-.65c1.07-.85 1.32-1.89.67-2.72m-1.91-2.45-3.46 2.3-.06.04.49.74 3.53-2.34zm-.44-.66-.43-.78-1.29.72-.38-.69c-.22-.4-.57-.61-1-.61-.39 0-.71.16-.79.21-.74.41-.99 1.07-.64 1.7l.83 1.5 3.64-2.02zm-3.5-.36c.08-.04.21-.12.35-.12.15 0 .28.09.38.27l.3.55-.93.51-.25-.46c-.11-.2-.15-.36-.12-.49.04-.09.13-.18.27-.26m1.9-2.63-1.05-2.46-.81.34.7 1.65-3.02 1.29-.07.02.36.82 3.83-1.63zm-1.5-3.85-3.94 1.33-.07.02.29.85 4.01-1.35zm-.49-1.65-2.64.63 2.3-1.93.04-.03-.21-.83-4.05.96-.07.02.19.81 2.57-.61-2.22 1.87-.04.03.22.88 4.11-.98zm-.6-2.61-.11-.93-.87-.15-.14-1.22.82-.32-.11-.96-4.01 1.76-.05.02.11.96 4.26.82zm-1.84-1.23L16 53.74l1.25-.51zm27.83 26.83c-.04.19-.2.63-.82.63-.08 0-.17-.01-.27-.02l-.18-.02-.13.79 1 .16-.54 3.3.97.16.8-4.93-.82-.13zm3.85.34h-.09c-.9 0-1.47.65-1.52 1.75-.04.93.49 1.61 1.29 1.65h.07c.29 0 .52-.08.69-.25-.07.68-.3 1.07-.66 1.07h-.02c-.24-.01-.37-.16-.4-.44v-.07l-.98-.04v.08c.04.81.56 1.35 1.33 1.38h.07c.47 0 1.57-.24 1.66-2.49.04-.64.13-2.57-1.44-2.64m.48 1.78c-.02.53-.31.72-.56.72h-.02c-.16-.01-.28-.05-.36-.14-.12-.13-.18-.37-.16-.7.03-.66.39-.73.55-.73h.02c.47.02.55.47.53.85m3.36-1.83h-.13c-.95.07-1.46.79-1.39 1.92.06.88.62 1.49 1.37 1.49h.1c.32-.02.56-.14.73-.34.01.57-.12.85-.24.98a.45.45 0 0 1-.31.16c-.24.02-.39-.11-.45-.38v-.08l-.98.07.01.08c.12.75.64 1.22 1.35 1.22.04 0 .09 0 .13-.01.38-.03.7-.19.95-.47.4-.46.56-1.2.49-2.2-.04-.59-.18-2.44-1.63-2.44m-.02.93c.44 0 .56.43.58.78.04.51-.22.76-.49.78h-.06c-.22 0-.51-.08-.56-.78-.05-.68.32-.78.48-.79.02.01.04.01.05.01m5.65 1.3-.46.09-.55-2.92-.01-.07-1.05.2-1 3.24v.02l.17.9 1.65-.32.2 1.06.96-.18-.2-1.06.47-.09zm-1.42.26-.86.16.55-1.88c0 .02.01.04.01.07.06.35.16.91.3 1.65m26.46-26.46c-.32-.09-.62-.13-.9-.13-.87 0-1.49.44-1.7 1.19-.23.84.17 1.56 1.09 1.99l.08.03.23-.86-.05-.02c-.42-.2-.59-.52-.5-.89.12-.45.54-.54.87-.54.19 0 .41.03.63.09 1.21.33 1.15.96 1.1 1.15-.13.47-.45.53-.72.53h-.16l-.23.85.07.01q.165.03.33.03c.29 0 1.25-.09 1.55-1.2.27-.99-.39-1.88-1.69-2.23m-3.15 3.19-.3.84 3.97 1.46.31-.83-3.91-1.44zm-1.02 2.54-.35.74 3.3 2.95.4-.84-2.33-1.9 2.89.57.05.01.41-.86-4.32-.66zm-1.21 2.4-.44.77 3.66 2.11.45-.77-3.6-2.08zm1.42 4.12-2.77-1.92-.51.73 2.77 1.92-.61.89.71.49 1.7-2.46.04-.05-.71-.49zm-4.33.22.48.74-.78.93-.79-.37-.62.74 4.02 1.71.05.02.63-.74-2.38-3.74zm.5 2.02.47-.56.76 1.13zm-.49 2.99-2.3-2.36-.05-.05-.64.62 2.35 2.41-.77.76.6.62 2.14-2.08.05-.05-.6-.62zM71 73.94l-.68.56 2.7 3.27.68-.58-2.66-3.2zm-.37 2.91c-.26 0-.53.1-.79.19l-.37.14c-.37.13-.6.19-.74-.02-.07-.1-.1-.2-.08-.31.04-.19.22-.35.38-.46s.31-.17.45-.17c.23 0 .38.16.46.26l.04.06.7-.49-.04-.06c-.16-.24-.53-.64-1.11-.64-.32 0-.67.13-1.03.37-.58.42-.99 1.17-.41 2.01.24.34.53.51.88.51.17 0 .36-.04.6-.12l.86-.3c.06-.02.14-.05.22-.05.1 0 .19.05.26.15.06.09.09.19.07.28-.02.13-.13.27-.28.38-.16.11-.3.16-.43.16-.21 0-.34-.13-.43-.24l-.04-.05-.71.49.04.06c.1.14.49.61 1.12.61.29 0 .59-.1.88-.31 1.11-.77.61-1.67.43-1.93-.28-.34-.57-.52-.93-.52M3.71 48.83l5.62 1.75.04-1.27-1.09-.32.04-1.23 1.1-.23.04-1.29-5.72 1.34zm3.34-.79-.02.59-1.2-.34zm-2.7-5.96 3.25 1.1-3.43.07-.24 1.56 5.6.86.18-1.13-2.56-.4 2.62-.03.18-1.12-2.54-.85 2.6.4.18-1.13-5.61-.87zm5.75-5.26L9.5 39l-.99-.28.52-1.92-1.23-.34-.54 1.92-.74-.21.58-2.09-1.25-.34-.89 3.23 5.46 1.52.93-3.33zm1.9-1.4-1.94-.77.26-.65c.13-.32.23-.34.33-.34.15 0 .36.08.63.19.51.21.79.28 1.07.33l.14.02.46-1.17-.4-.16-.08.07c-.02.01-.03.02-.05.02-.12 0-.37-.1-.82-.28-.75-.3-1.12-.29-1.39-.15-.13-.38-.49-.72-1-.92-.11-.04-.42-.15-.78-.15-.62 0-1.09.32-1.32.89l-.83 2.08 5.27 2.09zm-4.09-1.63.33-.83c.07-.18.18-.26.35-.26.11 0 .22.03.29.06.2.08.32.17.37.28.04.09.03.21-.04.38l-.31.77zm5.93-2.54-5.07-2.51-.53 1.07 5.08 2.52zm-2.09-2.16c.72.44 1.39.66 2 .66.69 0 1.26-.31 1.6-.88.54-.89.25-1.89-.8-2.76l-.16-.13-.62 1.04.12.1c.3.25.61.64.35 1.07-.28.45-1 .38-1.84-.13-.77-.46-1-.86-1.07-1.12-.05-.22 0-.38.06-.47.14-.23.31-.33.55-.33.19 0 .38.07.49.11l.13.05.61-1.01-.16-.09c-.36-.19-.77-.29-1.16-.29-.48 0-1.15.16-1.59.89-.25.41-.32.87-.21 1.34.18.71.76 1.39 1.7 1.95m5.4-3.19-.7-.89.75-.98 1.03.46.79-1.03-5.44-2.23-.76 1 3.56 4.68zM16 23.51l-.36.47-.79-.98zm4.23-1.34-2.28-2.2 3.25 1.2.79-.82-4.09-3.94-.79.83 2.21 2.13-3.15-1.16-.82.85L19.44 23zm4.97-4.52-3.54-4.44-.94.74 3.53 4.45zm1.79-1.32-1.75-2.63 2.91 1.87.95-.64-3.13-4.72-.96.63 1.7 2.56-2.81-1.82-1 .66 3.14 4.73zm1.9-6.26 2.01 3.89 1.06-.55-2-3.89 1.09-.57-.58-1.15-3.27 1.68.59 1.15zm8.02 1.25-.47-1.2-2.11.82-.37-.96 1.85-.72-.47-1.21-1.85.73-.28-.72 2.02-.79-.47-1.2-3.13 1.22 2.06 5.28zm1.84-.54-.54-2.01.68-.18c.11-.03.19-.04.26-.04.2 0 .27.12.43.72.15.55.26.82.38 1.05l.07.12 1.21-.33-.1-.41-.11-.02c-.09-.02-.16-.23-.32-.85-.21-.77-.4-1.05-.72-1.2.23-.34.29-.83.14-1.36-.16-.6-.64-1.29-1.44-1.29q-.195 0-.42.06l-2.16.59 1.48 5.48zM37.6 6.53l.86-.23c.35-.1.49.2.54.39.12.45-.02.58-.32.66l-.8.22zm5.62 3.24-.47-3.14 1.84 2.93 1.14-.17-.85-5.61-1.13.17.46 3.04-1.79-2.84-1.17.18.84 5.61zm4.68-1.61 1.23-.04.3 1.09 1.3-.04L49 3.55l-1.25.04-1.35 5.72 1.26-.04zm.27-1.28.26-1.23.34 1.21zm3.5 2.37 1.21.06.23-4.38 1.24.07.07-1.28-3.66-.21-.08 1.29 1.23.07zm3.16.258.754-5.62 1.19.16-.754 5.62zm3.99.822c.09.02.23.04.41.04.66 0 1.84-.32 2.33-2.48.62-2.74-1.08-3.29-1.43-3.38-.09-.02-.24-.04-.41-.04-.66 0-1.85.32-2.33 2.48-.24 1.06-.16 1.91.23 2.52.39.62.97.81 1.2.86m-.25-3.11c.29-1.27.83-1.46 1.13-1.46.05 0 .1.01.15.02.21.05.89.33.54 1.85-.23 1.02-.73 1.57-1.29 1.44a.73.73 0 0 1-.46-.33c-.2-.32-.23-.85-.07-1.52m4.2 4.06 1.05-2.97.25 3.44 1.08.39 1.9-5.36-1.08-.38-1.03 2.9-.24-3.35-1.12-.4-1.9 5.35zm4.08 1.62.73-.86 1.11.55-.25 1.1 1.16.57 1.13-5.77-1.12-.55-3.9 4.41zm1.58-1.86.81-.96-.28 1.23zm4.34 5.21.69-1.11-1.72-1.08 2.32-3.69-1.02-.64-3.02 4.81zm3.39 2.86c.38.33.78.5 1.18.5.56 0 1.11-.31 1.64-.93l2.39-2.75-.92-.8-2.41 2.78c-.38.44-.69.51-1.04.21a.43.43 0 0 1-.16-.31c-.02-.21.1-.46.33-.73l2.38-2.74-.93-.8-2.43 2.8c-.39.47-.59.87-.65 1.27-.08.77.35 1.27.62 1.5m3.07 2.75 2.34-2.13-1.4 3.16.77.85 4.19-3.82-.77-.85-2.26 2.06 1.36-3.06-.8-.87-4.2 3.81zm2.357 2.736 4.503-3.445.735.961-4.503 3.445zm2.593 3.674 5.57-1.82-.68-1.05-3.28 1.21 2.47-2.47-.69-1.08-3.98 4.3zm2.67 4.92 1.15-.58-1.02-2.02.92-.46.9 1.77 1.15-.58-.89-1.78.68-.34.98 1.93 1.15-.58-1.51-2.99-5.06 2.56zm.72 1.78 1.95-.74.25.66c.07.18.09.31.05.39-.06.13-.32.24-.66.37-.53.21-.78.34-1 .48l-.12.08.45 1.18.4-.15.01-.11c.01-.08.21-.17.82-.39.74-.28 1-.51 1.12-.83.35.19.86.2 1.36.01.58-.22 1.46-.89 1.05-1.97l-.8-2.09-5.3 2.02zm4.11-1.56.32.83c.04.1.15.39-.34.58-.12.05-.23.07-.32.07-.13 0-.26-.04-.37-.33l-.29-.77zm-.37 7.6c1.03-.27 1.2-.94 1.24-1.56l.05-1.05c.01-.17.02-.33.29-.4.05-.01.1-.02.15-.02.3 0 .41.32.44.42.14.53-.16.7-.45.81l-.14.06.29 1.11.17-.05c.68-.19 1.73-.86 1.37-2.2-.3-1.13-1.13-1.3-1.6-1.3-.25 0-.46.04-.6.08-1.25.33-1.28 1.12-1.31 1.82l-.01.46c-.02.49-.06.66-.32.72-.34.09-.55-.08-.67-.52-.14-.55.19-.76.49-.84l.17-.05-.3-1.13-.17.05c-.33.09-.78.27-1.11.65-.38.44-.47 1.02-.29 1.71.06.22.41 1.32 1.66 1.32.2 0 .42-.03.65-.09m3.98.15-5.57 1.05.22 1.18 5.58-1.05zm-.42 6.16 1.28-.14-.41-3.65-1.29.14.14 1.23-4.35.49.13 1.19 4.36-.49zm1.4 3.66-1.98-.66 1.95-.75-.02-1.39-3.5 1.55-2.15.03.02 1.2 2.14-.03 3.55 1.4zM32.11 89.59c.23-.07.54-.27.81-.8.31-.64.33-1.55-.61-2.01l-1.94-.95-2.49 5.1 1.71.84c.4.2.7.29.95.29.21 0 .38-.06.57-.15.36-.17.68-.5.88-.91q.39-.825.12-1.41m-.54-1.76c.31.15.36.29.23.55-.13.25-.32.31-.57.19l-.74-.36.36-.74zm-.61 2.52c-.19.39-.39.39-.46.39s-.16-.02-.24-.06l-.78-.38.47-.96.82.4c.14.06.36.24.19.61m.73 2.43 1.19.44.65-.93 1.16.43-.14 1.12 1.21.45.54-5.85-1.18-.43zm2.57-1.57.71-1.03-.15 1.24zm5.53 1.45-.55-3.3-1.15-.29-1.4 5.49 1.11.29.78-3.08.57 3.42 1.11.27 1.39-5.49-1.11-.29zm4.56-2.41c-.1-.01-.2-.02-.29-.02-1.15 0-2.05 1.05-2.28 2.69-.28 2.02.61 3.07 1.63 3.22.57.08.95-.13 1.22-.37v.39l.89.13.44-3.19-2.04-.28-.17 1.23.9.13c-.26.64-.64.71-.8.71-.03 0-.06 0-.08-.01a.8.8 0 0 1-.57-.31c-.23-.3-.29-.79-.2-1.46.14-1 .56-1.59 1.12-1.59.04 0 .07 0 .11.01.48.07.63.65.62.8l-.02.17 1.2.17.01-.19c.06-.96-.43-2.06-1.69-2.23m3.72.48-1.2-.04-.23 5.66 3.23.13.06-1.31-2.03-.08zm3.73.01-1.22 5.75 1.26-.07.23-1.11 1.23-.07.33 1.08 1.3-.08-1.86-5.57zm1.1 3.25-.59.04.23-1.23zm4.13-3.82-1.96.33.95 5.59 1.91-.32c.42-.07.76-.28 1-.62.58-.81.43-2.1.35-2.61-.09-.6-.56-2.66-2.25-2.37m-.05 4.48-.52-3.09.63-.1c.05-.01.1-.01.15-.01.15 0 .62 0 .86 1.39.06.37.21 1.6-.47 1.71zm4.83-1.05-.28-.99 1.92-.54-.35-1.24-1.92.54-.21-.74 2.09-.59-.35-1.24-3.23.9 1.53 5.47 3.33-.94-.35-1.24zm4.86-3.78c-.07 0-.14 0-.21.01l-1.04.07c-.16.02-.33.01-.44-.25-.05-.13-.05-.24-.01-.33.05-.12.18-.23.34-.29.11-.05.22-.07.31-.07.29 0 .43.21.54.43l.07.14 1.08-.43-.07-.16c-.25-.61-.81-1.25-1.65-1.25-.22 0-.46.05-.7.14-1.19.47-1.28 1.51-.96 2.33.39.98.97 1.11 1.49 1.11.15 0 .31-.01.47-.03l.45-.04c.11-.01.2-.01.29-.01.28 0 .39.06.46.25.06.14.06.26.02.37-.08.18-.29.29-.46.36-.12.05-.23.07-.32.07-.31 0-.48-.25-.57-.46l-.07-.16-1.08.43.06.16c.15.39.62 1.29 1.66 1.29.26 0 .55-.06.84-.17.8-.33 1.47-1.14.96-2.44-.34-.96-1-1.07-1.46-1.07m2.95-4.05.95 1.78-1.1.58-.94-1.78-1.06.56 2.64 5.02 1.07-.56-1.11-2.12 1.09-.57 1.12 2.1 1.06-.56-2.65-5.01z"/><path d="M50 .7C22.81.7.7 22.82.7 50S22.82 99.3 50 99.3c27.19 0 49.3-22.12 49.3-49.3S77.18.7 50 .7m0 97.57C23.38 98.27 1.73 76.62 1.73 50S23.38 1.73 50 1.73s48.28 21.66 48.28 48.28C98.27 76.62 76.62 98.27 50 98.27"/><path d="M50 10.63c-21.71 0-39.37 17.66-39.37 39.37S28.29 89.37 50 89.37 89.37 71.71 89.37 50 71.71 10.63 50 10.63m0 77.72c-21.14 0-38.35-17.2-38.35-38.35 0-21.14 17.2-38.35 38.35-38.35 21.14 0 38.35 17.2 38.35 38.35 0 21.14-17.21 38.35-38.35 38.35"/><path d="m75.79 28.5-.8.37a18.8 18.8 0 0 1-7.88 1.7c-7.35 0-14.03-4.27-16.63-10.62L50 18.78l-.48 1.16c-2.6 6.35-9.29 10.62-16.63 10.62a18.8 18.8 0 0 1-7.88-1.7l-.8-.37.07.88c2.5 29.55 13.32 51 25.71 51 12.4 0 23.22-21.45 25.71-51zM50 79.35c-11.7 0-22.03-20.68-24.62-49.21 2.37.96 4.9 1.45 7.51 1.45 7.37 0 14.05-3.99 17.11-10.2 3.06 6.21 9.73 10.2 17.11 10.2 2.61 0 5.14-.49 7.51-1.45C72.03 58.67 61.7 79.35 50 79.35"/><path d="M58.76 71.77c.26-.08.46-.26.57-.51.11-.24.1-.48-.02-.7-.42-.75-2.1-1-2.29-1.02l-.18-.03-.32 1.15-1.55-.77-.05.01.23-2.33-2.59-1.2c.18-.1.37-.18.55-.29l1.81-.64-.02-.14-.25-6.56-1.82.05c-.06-.73-.1-1.17-.1-1.18l-.02-.19-10.6.26.02 1.39-1.7.05.13 6.33 1.68.73v.22l.11.05c.01 0 .1.05.26.11l-2.17.12L40.3 69l3.15 2.64 4.12-.49-5.02.85 1.95 2.64 15.16-2.4-.93-.47zm-14.92-2.34 10.86-1.42c-.05.5-.17 1.68-.19 1.9-.29.03-9.48 1.12-10.77 1.27zm10.87-1.52-.01-.11c.01 0 .02.01.02.01 0 .02-.01.06-.01.1m-.45-8.77c.01.37.22 5.74.23 6.01-.16.06-.88.31-1.28.45-.08-2.53-.23-4.93-.35-6.43.39-.01 1.16-.03 1.4-.03m-13.29 6.02c-.01-.24-.11-5.3-.11-5.67.23-.01.95-.02 1.29-.03l.09 6.26c-.4-.19-1.14-.5-1.27-.56m11.38-7.35c.07.83.36 4.27.46 7.96-4.37 2.58-9.34.69-10.16.35 0-.25-.11-7.69-.11-8.07.38-.01 9.45-.23 9.81-.24m-1.51 9.63c-.1.15-1.29.48-3.32.48-2.01 0-3.2-.33-3.31-.52.02 0 .14-.1.58-.22 1.48.32 3.46.52 5.53.02.45.14.52.24.52.24m-6.74-.42c-.19.11-.3.24-.3.4 0 .88 3.34.91 3.72.91s3.72-.03 3.72-.91c0-.17-.12-.3-.28-.4.38-.12.76-.25 1.13-.43.35.16 1.62.75 2.26 1.05L43.7 69.03l-2.52-2.01c.72-.04 2.21-.12 2.45-.13.16.05.31.09.47.13m-3.27.24 2.61 2.09-.09 1.64c-.67-.57-2.49-2.09-2.61-2.19.01-.14.06-1.08.09-1.54m16.3 2.71c.54.09 1.58.35 1.82.79.03.05.04.11.04.17 0 .05-.01.11-.04.17a.51.51 0 0 1-.32.29c-.19.06-.43.05-.68-.01l-1.06-.53c.06-.26.18-.68.24-.88M44.7 74.19c-.12-.16-1.12-1.52-1.41-1.91.61-.1 11.49-1.95 11.61-1.97.05.03.73.37 1.5.75l-.03.1.13.08c.04.02.64.36 1.28.52.23.11.42.21.57.28-1.13.17-13.42 2.12-13.65 2.15"/><path d="m51.77 65.25-.24-6.4-7.73.24.13 6.28zm-.63-5.98c.01.36.2 5.21.21 5.58-.38 0-6.64.11-7.02.11-.01-.36-.11-5.12-.12-5.48.38-.01 6.56-.2 6.93-.21m-7 13.003 1.14-.214.075.402-1.14.215zm1.576-.243 1.14-.212.075.403-1.14.212zm1.559-.249 1.139-.219.077.403-1.139.219zm1.564-.256 1.13-.217.077.402-1.13.217zm2.781-.065-.08-.4-1.14.22.08.4zm.34-.426 1.14-.216.077.403-1.14.216zm1.57-.25 1.14-.217.077.403-1.14.217zm-8.876 1.882 1.141-.208.074.403-1.141.208zm1.559-.261 1.14-.212.075.403-1.14.212zm1.562-.238 1.14-.216.076.403-1.14.216zm2.695-.467-1.13.22.07.4 1.14-.22zm1.57-.24-1.14.21.07.4 1.14-.21zm.42-.035 1.14-.218.077.403-1.139.218zm1.565-.255 1.14-.213.076.403-1.14.213zM49.62 69l.08.4 1.13-.21-.07-.4zm-4.477 4.05 1.14-.215.076.403-1.14.215zm1.561-.252 1.14-.212.075.403-1.14.212zm2.776-.048-.07-.4-1.14.21.07.4zm.35-.436 1.14-.216.077.402-1.14.217zm2.78-.074-.08-.4-1.13.22.07.4zm.353-.428 1.139-.218.077.402-1.14.218zm1.561-.252 1.14-.216.076.402-1.14.217zm-8.879 1.876 1.141-.21.074.402-1.14.21zm1.558-.25 1.14-.212.075.403-1.14.212zm1.573-.239 1.13-.214.076.403-1.13.214zm1.559-.247 1.14-.216.076.403-1.14.215zm1.555-.24.08.4 1.14-.22-.08-.4zm1.57-.26.07.4 1.14-.21-.07-.4zm1.563-.247 1.14-.214.076.402-1.14.215zm-3.399-3.448 2.342-.286.05.407-2.343.286zm-.001.433 2.341-.294.051.407-2.341.294zM41.41 45.47c.22.01 7.02.37 7.02.37l-2.41-8.6-1.63.18c-2.28-1.3-3.2-.64-4.52.32 0 0-.09.06-.17.13-.56-.64-1.24-1.04-2.05-1.12-1.04-.11-2.09.27-2.89.68l-1.89-.18-1.89 8.6.26-.01c.04 0 4.16-.13 6.89-.36.64.65 1.28.96 1.9.89.76-.09 1.23-.67 1.38-.9m3.57-7.21c.5 1.04 1.47 4.94 1.78 6.2-1-.49-3.72-1.66-5.65-1.05-.51.16-.91.47-1.22.87v-6.06l.22-.16c1.47-1.06 2.21-1.59 4.87.2m-7.37-1.11c.74.08 1.37.44 1.88 1.05v6.18c-1.08-1.1-2.88-1.67-7.03.47.14-.7 1.2-6.11 1.22-6.25.28-.23 2.16-1.64 3.93-1.45m-4.42.53c.15.02.59.06.96.09-.46.28-.75.52-.78.55l-.06.05-1.38 7.03c-.18.01-.33.01-.45.02.11-.48 1.63-7.41 1.71-7.74m6.79 8.28q-.78.09-1.65-.84l-.07-.07-.1.01c-1.89.16-4.48.27-5.9.32 5.32-2.85 6.63-1.17 7.26-.36l.2.26.14-.29c.28-.59.74-.99 1.36-1.18 2.18-.7 5.69 1.2 5.73 1.22l.4.22-.11-.45c-.05-.23-1.33-5.56-1.94-6.77l-.02-.05-.04-.03c-.1-.07-.2-.13-.29-.19.3-.03.63-.07.76-.08.09.31 2.02 7.23 2.16 7.73-.52-.03-6.69-.35-6.69-.35l-.06.11c.01 0-.42.71-1.14.79m21.75-1.66-.52 4.62s2.2 1.44 3.88 0c-.49-3.72-.6-4.62-.6-4.62s-1.14-2.5-2.76 0m1.3-4.14c.71 1.27.64 1.86.41 2.18.86-.64.67-2.03.67-2.66-.84-.96-.6-1.8-.23-3-2.86 2.75-1.34 5.21-.94 5.76-.42-1.12.09-2.28.09-2.28m-2.493 4.94.487-1.566.65.202-.488 1.566zm-1.977-1.4.909-1.352.564.38-.91 1.352zm-1.087-2.004 1.5-.64.266.625-1.499.64zm-.395-2.166 1.64-.023.01.68-1.64.023zm.156-1.604.29-.616 1.483.698-.29.616zm1.306-1.956.494-.468 1.12 1.185-.495.467zm1.6-1.439.612-.294.706 1.469-.612.294zm4.293 9.202.65-.201.485 1.567-.65.2zm1.639-1.005.566-.378.905 1.355-.565.378zm.788-1.046.267-.625 1.5.64-.267.625zm.527-1.504.01-.68 1.63.025-.01.68zm-.284-2.173 1.485-.696.288.615-1.484.697zm.457-2.035-.49-.47-1.12 1.19.5.46zm-1.6-1.44-.61-.3-.7 1.48.61.29zm-3.272.597.032-1.63.68.014-.032 1.63z"/></g></svg>